<?xml version="1.0" encoding="UTF-8" standalone="no"?>
<svg id="svg7" height="285.05283" viewBox="0 0 348.99991 285.05283" width="348.99991" xmlns="http://www.w3.org/2000/svg">
   <path id="path5" d="m331.48198 273.81841a4.6108163 4.6108163 0 1 0 0 9.22163 4.6108163 4.6108163 0 1 0  0-9.22163zm0 8.4561a3.7392954 3.7392954 0 0 1-3.78051-3.8394 3.7628501 3.7628501 0 1 1  7.51392 0c0 2.20825-1.64882 3.8394-3.73341 3.8394zm2.12581-4.98769c0-1.04818-.6242-1.52516-1.89615-1.52516h-2.03159v5.31746h.81264v-2.30836h.93629l1.39562 2.30836h.91863l-1.53105-2.34369c.78907-.0942 1.39561-.52409 1.39561-1.44861zm-3.1151.80675v-1.63116h1.11295c.56531 0 1.17185.10011 1.17185.75964 0 .81852-.63009.87152-1.31906.87152zm-292.383462-218.298298c.300321 1.360279 2.178802 2.802999 5.211459 3.815847.965739.323876.317987 2.402571 2.903106 2.691115 8.821204.971628 21.941126-1.937367 24.455581-3.798182 1.295504-.948073.406318-3.091543-2.278909-5.093685-2.93255-2.172914-6.489297-4.893472-8.809426-10.629021-2.314242-5.73555-4.763922-6.542295-6.624736-7.166493-1.372057-.459315-3.698075-.30621-6.777842 2.196468-2.932549 2.390794-5.482337 2.220023-7.060496 5.458783-1.578159 3.232871.312099 5.07602.06477 7.036942-.259101 1.96681-1.57227 3.309423-1.083512 5.488226zm4.893472-3.833514c3.40953-.03533 4.475377-.948074 4.475377-.948074 0 0-1.595826-2.137581-1.70771-5.105463a6.6541793 6.6541793 0 0 1  .965739-3.627411c.5712-.847966 1.348502-.03533 1.09529.659529a5.3527867 5.3527867 0 0 0  .0059 3.067989c.730193 2.555676 3.533192 2.031586 4.398824.153105.871521-1.890258.459315-3.703963.30621-5.046576-.123661-1.165954.900964-1.077624 1.307282-.294433.388651.736082 3.603856 7.072274-1.165954 10.76446-4.775698 3.686297-9.251076 2.14347-10.15204 1.731264-.889187-.418094-.730193-1.342613.471093-1.35439zm302.28818 23.619392c0 0-.0648 0-.16489-.01767-1.73715-1.260172-4.94647-2.632229-10.32281-5.435228-10.83512-5.647219-15.42238-5.235014-20.71628-6.43041-6.83084-1.531051-4.95825-2.855998-15.3105-5.729661-10.09316-2.808888-13.47324-2.485012-13.47324-2.485012 2.47912-7.92024 7.51392-3.527304 10.21681-4.092615 2.34957-.488758 3.59208-1.819594 3.4272-5.270345-.15311-3.450752 2.16702-6.91328 2.16702-6.91328 0 0 1.69593-.547645 2.10225-.783191.34154-.206103.34743-.683084.0471-1.207175-.52409-.924518-1.62527-2.732335-1.98448-4.864028-.50642-2.944327.84208-5.223236.26499-6.253751-8.90953-2.773556-26.26339 5.476449-24.55568 3.15043 13.75589-9.357071 31.39241-8.779983 27.85922-10.876344-4.81692-2.861886-3.76874-4.734478-10.04605-9.280519-3.27409-2.373128-7.7848-2.997325-12.31906-2.485012.91274-1.5369394 3.16221-5.6589974 2.34368-7.6964714-1.01873-2.54389402-16.08191 1.012848-26.23984 1.348501-10.15204.335654-16.28802-2.019805-16.28802-2.019805 0 0 1.53694 4.074946 8.52089 5.617773 6.31263 1.389723 11.55354.300322 13.09636.164882.21788-.01766 1.04818 1.436832 1.04818 1.436832 0 0-2.32013.9362964-8.09101.9362964a34.778392 34.778392 0 0 1-10.75857-1.8490374c0 0 3.77463 4.4577114 10.1226 5.2880114 6.77784.883298 10.89401-.600643 10.89401-.600643l1.07173 1.425055c-9.53962 3.639188-17.32442-.824412-17.32442-.824412 0 0 1.37795 3.285869 6.88973 4.392936 5.1349 1.030515 8.33833.188437 8.75054.07066-1.5075 2.178802-2.16703 4.669703-2.64401 7.360818-.48876 1.843149-.89507 3.945398-1.10706 6.206641-1.57228 6.730732-8.84476 12.224847-7.76125 12.837267 1.10707.630086 13.16703-5.564779 13.16703-5.564779 0 0 .0294 8.120455-4.08084 13.331914-4.11617 5.217347-9.15097 4.204499-16.24679 6.059425-3.8453 1.012848-4.99358 1.860815-7.45504 1.578159-3.49197-.400428-8.23234-.600643-12.6135.5712-5.87688 1.57227-12.70182 5.870988-16.52945 6.724843-3.40953.771414-14.34476 1.754819-18.82014 3.23876l-3.3212 1.13651c-2.80889 1.00696-4.85814 1.725376-7.07227 1.872592-1.26606.05889-2.86189.07655-4.65204-.370985-2.60279-.647752-5.84155-1.454498-9.79872-1.189508-4.14561.247323-6.47163.571199-13.6499 2.514455-7.16649 1.937367-14.94541 4.416491-18.61404 4.387047-5.49411-.04122-6.98394-1.277838-11.37688-2.985547-2.18469-.859744-7.34904-.559423-11.03534.606531-2.15524-1.654712-4.11028-3.23876-5.09368-4.381159-2.24358-2.62634-2.34369-7.402038-5.5-10.935231-3.150435-3.533192-3.768744-7.973237-3.533198-11.117779.241435-3.15043.765526-4.010173.04711-7.543366-.712527-3.533192-2.956105-5.182016-3.438974-4.964135-.453427.206102-1.18362 3.592079-.429872 6.059425 1.101178 3.580302.52409 6.636513.48287 10.075487-.02944 1.955033 1.242506 5.25268.953961 5.25268-.288544 0-2.773556-1.960922-3.297646-5.447005-.200214-1.348502-.188437-9.01553-2.049252-11.500542-1.866703-2.485012-2.202356-7.207713-2.4909-8.9272-1.059958-6.38919-2.614563-11.211998-3.438974-10.799792-.435761.21788-.741971 1.148288-.953962 2.732336-.48287 3.574413.06478 7.749469.312098 10.216815l-.01767-.053c-1.22484-1.978588-3.162207-2.979659-4.981801-1.825483a14.645083 14.645083 0 0 0-1.389723 1.042292 52.85656 52.85656 0 0 0  .630086-8.191118c0-3.645077-1.289615-3.792293-3.444862-4.581373-2.14347-.78908-2.072807-1.430943-3.221094-3.362422-1.148288-1.931478-3.009102-2.938438-4.805142-1.860814-1.784262 1.071735-4.940581 4.363492-7.449148 4.363492-2.508566 0-3.291757.78908-4.799253 4.080838-1.507495 3.291757-2.437903 2.149359-2.861886 4.657925-.317987 1.83726 2.308353 8.980198 9.386515 11.317994a30.621002 30.621002 0 0 0 5.835656 1.324947c-1.248394.78908-2.791222 1.884369-2.967881 4.599039-.288544 4.310495 3.562636 10.28159 9.692725 12.083518 2.879552.842078 7.301931 1.260172 10.682018.847967 4.869917.688972 8.18523 3.633299 11.535874 6.053536 2.196468 1.595825 5.870985 5.971096 7.790685 7.784801.75375.718416 5.39401 4.010174 5.765 4.434157l.0118.02944a3.1916506 3.1916506 0 0 0-.76553.783191c-.99518-.429872-6.39508-4.145613-7.7848-5.341009-2.061028-1.772485-7.884907-8.438442-14.480199-11.159-.971628-.400429-2.808888.43576-5.935764.747859-3.297646.335653-5.611887-.188437-6.448076-.282656-1.142399-.135439-1.807817 1.09529-6.724843 2.767668-4.922915 1.672378-8.544438 4.345827-9.798721 5.246791-1.236617.906853-.488758 1.536939.341542 1.766596.883298.253212 9.88705 2.202357 13.950222-.09422 4.057283-2.290687 7.737692-3.674521 10.89401-3.72163 3.156319-.04711 6.306749 1.242506 10.028378 4.675592 3.72163 3.438974 4.351716 2.867774 6.548184 3.391865 2.196467.52409 6.018207 2.914883 8.838867 5.24679 2.81478 2.343685 3.58619 2.773557 7.26071 4.781588 3.68042 2.002157 24.33782 16.129035 25.58033 16.653125 1.2425.5182 2.62045-1.58993 2.09636-2.16702-.52409-.5712-1.88437-1.454499-2.21413-1.984478-.32977-.52409-.5712-2.337796-.85975-2.861886-.28854-.52409-3.22698-2.002142-6.54229-3.963064a87.540734 87.540734 0 0 1-7.2136-4.787476c6.54818-.753747 16.42934-.56531 30.33245-.111884 9.12742.300321 17.08299-1.713598 23.50751-1.719487 7.0605 0 12.4545 2.137581 19.69166 2.14347 13.1317.01178 16.04658-.253212 16.04658-.253212 0 0-3.79229 14.686307-3.79229 25.356547 0 8.75054-4.18094 9.22752-13.3908 15.04551-6.60118 4.17506-8.93309 9.57495-8.93309 9.57495-.16488 0-17.34797.70075-31.05676 7.6317-13.30247 6.70129-15.99358 7.17238-16.97699 7.60225-.97752.42398-1.53694.21199-1.53694.21199-.18255-.11188-13.85011-6.04176-24.73823-7.56692-9.38063-1.31906-15.19273.47698-16.91222.47698-9.89294 0-19.538555.34154-19.538555.34154l6.30086-4.73447c1.83726-1.08941 4.834585-3.12688 5.11724-4.98769.406318-2.7029-14.385982-7.25483-23.313182-12.10119-8.933088-4.84636-13.025703-9.98716-13.025703-9.98716 0 0-.736082 4.29283 4.498932 9.15686 4.746255 4.38705 9.639727 6.05354 11.035338 6.72484.02944.006.04711.053.07066.11189l.08244 1.64293c-.147216-.0177-2.432014-.4122-7.248933-3.23287a34.601732 34.601732 0 0 1-8.344223-7.03694c0 0 1.001071 5.76499 6.053536 9.68684 5.394007 4.18683 9.698614 4.98769 9.698614 4.98769l.100107.85385.04122.90685c-10.028378-1.71359-14.456646-9.45718-14.456646-9.45718 0 0-.547645 3.27999 3.703964 7.2666a29.331387 29.331387 0 0 0 10.964674 6.45986l.141328 2.96788c-2.473235-.49465-4.752144-1.26606-5.700218-2.5969-1.383833-1.9727-3.650965-4.27516-5.72966-4.53426-4.599039-.56531-7.254822 3.05621-10.758572 5.94754-3.49786 2.89133-6.383301 1.48394-11.747865 3.38598-5.358676 1.90792-8.138126 8.16756-7.602256 9.49251.53587 1.32494-.38276 1.64293 7.566924-.35332 7.867242-1.9727 8.297114-2.15525 16.10547-1.12474 7.808355 1.03052 12.654718-1.09528 17.960395-1.2425 8.432553-.23555 9.009641 1.43683 24.343697 4.7757 15.339944 3.33886 40.301954 9.37473 40.708264 9.59262.40043.21199 5.58834 2.86777 14.18577 2.14935 9.05086-.75374 13.92078.21788 25.08567-1.28961 23.23663-3.13865 29.25483-6.63651 29.25483-6.63651 0 0 8.29123 5.58833 19.47378 11.9363 17.91917 10.1697 30.674 15.75215 30.674 15.75215 0 0 4.48715 18.11349 9.98127 26.68149 2.87366 4.46948 7.21949 8.06745 7.83779 8.77998 4.2045 4.87581 8.03213 9.2923 11.7832 13.90311-.82441.053-1.64293.0942-2.4379.12955-10.15204.32977-16.28802-2.03158-16.28802-2.03158 0 0 1.53694 4.08083 8.52088 5.61777 6.31264 1.39561 11.55354.30621 13.09637.17077.21788-.0177 1.04229 1.43684 1.04229 1.43684 0 0-2.32013.9304-8.08512.9304-5.75909 0-10.75856-1.84315-10.75856-1.84315 0 0 3.77463 4.45772 10.1226 5.28802 6.77195.88329 10.89401-.60065 10.89401-.60065l.83618 1.11296.15311.33565c-9.50429 3.5803-17.24198-.84796-17.24198-.84796 0 0 1.1954 3.10921 6.88384 4.39293 4.36349.98341 7.72002 1.2484 11.42399.19433.11188 1.87848-.70075 3.02677-1.44272 4.70503-.96575 2.20236-2.75001 5.9181-1.90793 7.82602 1.88437 4.23395 8.33245 3.45664 12.6135 4.96414 4.28693 1.50749 4.56959 4.69326 8.96252 8.30889 4.39883 3.60975 11.20022 2.76178 12.05996 1.61938.85975-1.13651 1.60761-.52409-4.20449-6.30086-5.74144-5.71788-6.1242-5.98287-9.26875-13.20825-2.95021-6.77195-3.13276-5.17613-8.20878-12.6135 1.27195-1.1954 1.73126-2.0728 1.73126-2.0728 0 0 3.72752-5.74733 2.70879-8.28534-.56532-1.41917-4.71093-1.07763-10.02838-.43576 0 0-5.57067-18.23128-9.68095-30.39723-4.11027-12.17774-10.30514-24.80301-10.48768-25.25055a20.080311 20.080311 0 0 1-.73609-2.58512 12.890264 12.890264 0 0 0-2.70289-5.02891c-1.66649-1.84315-6.63651-5.68844-7.14294-6.14187-.49464-.45342-3.59207-4.75214-10.6879-12.34262-7.08994-7.59047-19.86243-18.45504-19.86243-18.45504.47698-3.07388 1.41916-3.65096 4.2045-6.83084 2.77944-3.18576 6.46574-6.31852 8.83298-7.86135 9.45718-6.15953 18.13705-15.22217 21.65847-19.36778l-.006-.006c-.89508-.30621-1.56638-.71842-1.83726-1.28962l-.18255-.38276.0118-.4181c.006-.21199.23554-5.235011 6.50696-6.877945.87152-.235546 1.6076-.418095 2.2318-.577088l.90685-.211992c-1.48983-.895075-1.8137-1.92559-1.5546-1.831371.30032.100107 3.53908.777302 4.88758.818523h.24732c.053.0059.10011.01767.15311.01767 2.15525.105995 4.45771.529979 2.39079 1.148287-3.56852 1.077624-3.72751.959851-8.83298 2.296575-5.09957 1.336725-5.21735 5.276235-5.21735 5.276235.28855.59475 4.28694 1.36028 10.42881 1.07173 6.15364-.28265 12.86671-3.77462 17.56586-4.475373 8.07923-1.201285 21.45825 2.237693 32.2286-2.008031 6.92506-2.732335 8.57388-5.847433 11.106-7.325485 2.53801-1.483941 5.57067-3.338867 6.4893-4.622593.91863-1.277838 1.30139-4.522487-.98929-5.912209zm-278.686454-47.550883c-5.352787 1.342613-8.538549-1.57816-9.139192-2.249466-.606531-.677195-.117773-1.419166.883298-.965739 2.602786 1.165953 4.098504.842077 4.098504.842077 0 0-.624198-2.938438.229657-4.999467.853855-2.055141 3.450752-3.285869 3.963065-3.444863.995182-.323876 1.289615.683084.759636.853855a4.3576041 4.3576041 0 0 0-2.820665 3.527304c-.329765 2.408459 2.214134 2.985547 3.633299 1.725375 1.413277-1.26606 1.737153-2.932549 2.10225-4.11028.317987-1.024626 1.142399-.577088 1.201285.223769.05889.759636.435761 7.248933-4.911137 8.597435zm12.236623 17.206647c-5.317455 1.413278-8.550326-1.466274-9.150968-2.131692-.606532-.671307-.147217-1.389723.865632-.971628 2.88544 1.177731 4.104392.789079 4.104392.789079 0 0-.582977-2.36135.376874-4.89936a6.0064273 6.0064273 0 0 1 2.09636-2.71467c.783192-.512312 1.148288.44165.688973.942185a4.905249 4.905249 0 0 0-1.083512 2.585119c-.294433 2.40846 2.249466 2.956105 3.650965 1.678267 1.4015-1.277838 1.701821-2.950216 2.049252-4.133835.300321-1.018738 1.13651-.588866 1.201285.211991.07066.759636.529979 7.237156-4.799253 8.644544zm100.177781 115.435286c-10.02837 1.58994-13.68523 2.81478-13.53212 1.00107.15899-1.80781 7.14882-1.21306 14.76874-5.29978 7.61992-4.08084 9.2393-9.27464 10.88224-9.48663 1.69004-.2061.58886.56531 3.42719 3.60386 2.83244 3.05032 5.82977 4.33405 5.60011 5.26446-.23554.92452-11.106 3.32709-21.14616 4.91702zm63.24415 12.63117c-.86563 2.09636-7.9379-2.01981-24.97378-12.62528-14.99252-9.33352-21.30515-12.50161-20.72806-21.66436.38865-6.27141 7.19593-12.04818 13.19647-13.30247 2.77356-.57709 3.71574-.13544 7.0075 1.94326 4.12206 2.59101 5.01713 3.72163 4.08672 4.22216-4.93469 2.65579-8.79176 10.15793-6.77784 14.78641 3.82174 8.77999 29.04285 24.53803 28.18899 26.64028zm-8.17934-78.9963c-11.65365 6.73073-11.46521 12.08352-11.94219 13.17292-.47698 1.10118-5.15846-1.95503-4.97002-4.19861.18843-2.24358.7773-5.2409 1.85492-10.175596 1.28373-5.918097 2.3908-9.892938 3.15043-10.275701.76553-.388651 6.60707-2.220023 9.32763-4.275163 2.72056-2.049252 3.77463-6.630625 4.87581-6.677734 1.09529-.053-1.00108 8.061568 3.15631 11.353326 4.15151 3.297646 13.90312 4.540152 13.7559 5.447004-.14722.912742-7.54925-1.095289-19.20879 5.629554zm35.57925-34.83139c-2.3378.582977-6.73073.836189-10.85279.971628-4.71681.147217-10.03427.747859-11.23555.747859-2.24947 0-1.87259-2.149358 3.18576-2.991436 5.05247-.842077 12.63705-2.808888 16.57067-6.73662 3.93362-3.921844 2.71467-11.965746 4.21039-12.065853 1.50161-.09422-.55942 8.326557 5.98876 9.822275-6.54818 3.921844-3.46842 9.150969-7.86724 10.252147zm38.21737 26.551942c-5.11136 2.432015-9.12742 3.203428-14.65686 2.53801-2.19647-.264989-3.44487-.365096-4.50483-.471092a29.266612 29.266612 0 0 1-1.9197-.259101c7.65525-4.451822 9.10975-12.778379 9.10975-12.778379 0 0 4.25161 2.390793 11.91864 3.886511 4.36349.847967 8.60921.694862 10.38758 1.507496-3.23876 1.101178-5.79443 3.421308-10.33458 5.576555zm-93.98293 110.400488a4.6108163 4.6108163 0 1 0 0 9.22163 4.6108163 4.6108163 0 1 0  0-9.22163zm0 8.45611a3.7334068 3.7334068 0 0 1-3.77462-3.83941 3.7569615 3.7569615 0 1 1  7.51392 0c0 2.21414-1.64882 3.83941-3.7393 3.83941zm2.1317-4.98181c0-1.05407-.63009-1.53104-1.89615-1.53104h-2.03747v5.31745h.81852v-2.30835h.93629l1.39562 2.30835h.91274l-1.52516-2.34369c.78908-.0942 1.39561-.5182 1.39561-1.44272zm-3.1151.80675v-1.63116h1.11295c.55943 0 1.17185.10011 1.17185.75964 0 .81263-.63009.87152-1.32495.87152zm-210.91393 78.34266h20.77517l8.22056-35.62636h26.098519l3.609745-15.53427h-26.098515l3.662743-15.92292h28.87796l3.609745-15.54016h-49.653137zm138.82502-82.62371h-61.983971l-3.609745 15.54016h20.551403l-15.498937 67.08355h20.88117l15.49305-67.08355h20.5514zm60.80625 10.15204c-2.99733-3.32709-7.11939-5.85332-12.3544-7.57281-5.23501-1.71948-12.32495-2.57923-21.24626-2.57923h-19.21468l-19.1028 82.62371h22.82443c9.22163 0 16.84744-1.01874 22.87742-3.05033 6.04176-2.03747 11.88919-5.78854 17.55408-11.26499 4.81103-4.69915 8.54443-10.45825 11.18844-17.28909 2.64989-6.82495 3.97484-14.13866 3.97484-21.94113 0-3.95717-.54764-7.50214-1.64293-10.62902a24.302476 24.302476 0 0 0-4.85814-8.29711zm-17.83085 37.48717c-1.80782 5.30568-4.36349 9.5514-7.65525 12.73127a22.335666 22.335666 0 0 1-9.91649 5.77088 45.065871 45.065871 0 0 1-12.2484 1.61349l12.38384-53.33354c2.96788 0 5.51767.11778 7.66702.34154 2.14347.21788 4.08673.77142 5.82977 1.6606 2.03748 1.07174 3.65686 2.6499 4.85814 4.74626 1.20718 2.09047 1.80193 4.83459 1.80193 8.24412 0 6.84261-.90096 12.91381-2.72056 18.22538z" fill="#caad59" fill-rule="evenodd" stroke-width="5.88865423"/>
</svg>
