<svg xml:space="preserve" overflow="visible" viewBox="0 0 131.64870259481037 149.6" id="Layer_1" version="1.1" xmlns="http://www.w3.org/2000/svg" style="max-height: 500px" width="131.64870259481037" height="149.6"><metadata id="metadata2142">image/svg+xml</metadata><defs id="defs2140"/>
<g id="g2105">
	<g id="g2107">
		<g id="g2109">
			<path id="path2111" d="M131.1,0H0v149.6h131.1V0z" fill="#FFFFFF"/>
			<g id="g2113">
				<path id="path2115" d="M75.5,101.5c-1.9,1.1-3.1,2.4-3.8,4.1c-1.4,3.8-0.6,8.1,2.3,12.9l-2.8,2.8L68,126      c-1.5,4.1-0.9,8.4,2.1,13.1c1.8,3.1,5.1,4.6,10,4.5h12.5c1.9,0.2,2.7-0.4,2.3-1.9V119h-7.1v5.7l-8-11.3l-1.2-3.5      c0-2,0.9-2.9,2.7-2.7l1,0.3c0.8,0.4,1.1,1,1.3,1.9v3.2h8v-2.7c-0.1-2.4-0.5-4.3-1.3-5.7l-1.1-1.4c-1.7-1.6-4-2.4-6.9-2.6      l-4.1,0.3L75.5,101.5z" fill="#FDB813"/>
			</g>
			<g id="g2117">
				<path id="path2119" d="M82.9,136.6h4.4l0.1-0.5l-9.7-11.4c-0.9,0.6-1.5,1.8-1.9,3.6c-0.5,2.3-0.1,4.4,1.2,6.4l1.6,1.1      L82.9,136.6z" fill="#FFFFFF"/>
			</g>
			<g id="g2121">
				<path id="path2123" d="M122.2,121.8h-11.5v12.6h11.5v9.2h3.2V5.6H97.9V144h1.6V91.4h22.7v9.3h-11.5v11.8h11.5V121.8z" fill="#1689C5"/>
			</g>
			<g id="g2125">
				<path id="path2127" d="M24.6,104.6c-0.7-3.1-2.5-4.4-5.1-3.9V116c3,0.5,4.7-1.1,5.1-4.8V104.6z" fill="#1689C5"/>
			</g>
			<g id="g2129">
				<path id="path2131" d="M45.1,90.9l5.6-0.8c4.1,0.2,7.3,1.7,9.4,4.6l1.6,2.5c0.8,2.4,1.2,5.7,0.8,9.8l-10.1-0.1v-5      c-0.2-1.5-0.9-2.3-2.5-2.3c-1.5,0.1-2.3,1.1-2.3,3v29.9l0.3,1.4c0.4,0.9,1,1.5,1.9,1.6c2,0.7,3.1-0.2,3.1-2.5v-8.8h-2.8V115      h12.8v12.4L97.2,5.6H5.6v138.5h3.3V91.2h10.8l5.6,0.6c4.1,1.2,6.9,3.3,8.4,6.6c0.8,1.7,1.3,4.6,1.7,8.6      c0.4,5.6-0.1,9.2-1.3,10.7c-2.3,5.2-6,7.8-11.2,7.4l-3.6-0.1v18.7h25.4c-5.1-1.1-7.6-5-7.6-11.3v-30.3      C36.4,96.1,39.1,92.3,45.1,90.9z" fill="#1689C5"/>
			</g>
			<g id="g2133">
				<path id="path2135" d="M141.9,16.2c5.4,0,8-2.7,8-8.2c0-5.2-2.6-7.7-8-7.7c-5.5,0-8.1,2.5-8.1,7.7      C133.8,13.5,136.4,16.2,141.9,16.2z M148.4,8c0,4.8-2.1,7-6.5,7c-4.5,0-6.7-2.2-6.7-7c0-4.4,2.2-6.7,6.7-6.7      C146.3,1.3,148.4,3.6,148.4,8z" fill="#1689C5"/>
				<path id="path2137" d="M145.6,6.1c0-1.8-1.2-2.7-3.3-2.7h-3.5v9.5h1.4V8.8h1.6l2.6,4.1h1.5l-2.7-4.2      C144.9,8.5,145.6,7.6,145.6,6.1z M142.2,4.6c1.4,0,2,0.5,2,1.4c0,1.1-0.9,1.6-2.5,1.6h-1.5v-3H142.2z" fill="#1689C5"/>
			</g>
		</g>
	</g>
</g>
</svg>