<?xml version="1.0" encoding="UTF-8" standalone="no"?>
<!-- Created with Inkscape (http://www.inkscape.org/) -->

<svg
   xmlns:dc="http://purl.org/dc/elements/1.1/"
   xmlns:cc="http://creativecommons.org/ns#"
   xmlns:rdf="http://www.w3.org/1999/02/22-rdf-syntax-ns#"
   xmlns:svg="http://www.w3.org/2000/svg"
   xmlns="http://www.w3.org/2000/svg"
   xmlns:sodipodi="http://sodipodi.sourceforge.net/DTD/sodipodi-0.dtd"
   xmlns:inkscape="http://www.inkscape.org/namespaces/inkscape"
   width="82.730026"
   height="30.8978"
   viewBox="0 0 21.888986 8.1750428"
   version="1.1"
   id="svg23028"
   inkscape:version="0.92.0 r15299"
   sodipodi:docname="red roof.svg">
  <defs
     id="defs23022" />
  <sodipodi:namedview
     id="base"
     pagecolor="#ffffff"
     bordercolor="#666666"
     borderopacity="1.0"
     inkscape:pageopacity="0.0"
     inkscape:pageshadow="2"
     inkscape:zoom="10.975157"
     inkscape:cx="40.865018"
     inkscape:cy="14.9489"
     inkscape:document-units="mm"
     inkscape:current-layer="layer1"
     showgrid="false"
     fit-margin-top="0"
     fit-margin-left="0"
     fit-margin-right="0"
     fit-margin-bottom="0"
     units="px"
     inkscape:window-width="1280"
     inkscape:window-height="744"
     inkscape:window-x="-4"
     inkscape:window-y="-4"
     inkscape:window-maximized="1" />
  <metadata
     id="metadata23025">
    <rdf:RDF>
      <cc:Work
         rdf:about="">
        <dc:format>image/svg+xml</dc:format>
        <dc:type
           rdf:resource="http://purl.org/dc/dcmitype/StillImage" />
        <dc:title></dc:title>
      </cc:Work>
    </rdf:RDF>
  </metadata>
  <g
     inkscape:label="Layer 1"
     inkscape:groupmode="layer"
     id="layer1"
     transform="translate(-45.884226,-157.46472)">
    <g
       id="g23058"
       transform="translate(0.1322907,-0.13228368)">
      <path
         id="path20524"
         d="m 62.404257,163.38999 c 0.18328,-0.41065 0.3514,0.007 0.51952,-0.4079 0.0744,-0.0868 0.271471,-0.16536 0.394121,-0.12127 0.133669,0.0482 0.234259,0.51815 -0.0579,1.05972 -0.238399,0.44235 -0.64492,0.59669 -0.76068,0.56637 -0.25907,-0.0648 -0.304539,-0.62425 -0.0951,-1.09692 z m 1.05971,-1.23748 c -0.3197,-0.16398 -0.621489,0.0124 -0.848869,0.15434 -0.0992,0.0303 -0.0937,-0.0496 -0.22738,-0.0179 -0.0896,0.0221 -0.340371,0.38447 -0.46715,0.59945 -0.687641,1.16306 -0.438221,2.02985 -0.0138,2.25171 0.54294,0.28387 1.40284,-0.0758 1.94165,-1.08452 0.40239,-0.75378 0.23978,-1.58474 -0.38447,-1.90307"
         style="fill:#d7113f;fill-opacity:1;fill-rule:nonzero;stroke:none;stroke-width:0.35277778"
         inkscape:connector-curvature="0" />
      <path
         id="path20526"
         d="m 60.036787,163.40101 c 0.18328,-0.41203 0.3514,0.006 0.5209,-0.40927 0.073,-0.0868 0.270091,-0.16537 0.39412,-0.12127 0.133671,0.0482 0.232891,0.51814 -0.0579,1.05971 -0.238401,0.44235 -0.64492,0.59669 -0.762061,0.56638 -0.25769,-0.0648 -0.304539,-0.62288 -0.0951,-1.09555 z m 1.06109,-1.23885 c -0.32108,-0.16399 -0.622869,0.0124 -0.850249,0.15434 -0.0992,0.0303 -0.0937,-0.0496 -0.22738,-0.0165 -0.0882,0.0207 -0.340371,0.38448 -0.465771,0.59807 -0.687639,1.16307 -0.438219,2.02985 -0.0152,2.25172 0.54432,0.28387 1.40422,-0.0758 1.94165,-1.08452 0.40239,-0.75379 0.23978,-1.58474 -0.38309,-1.90307"
         style="fill:#d7113f;fill-opacity:1;fill-rule:nonzero;stroke:none;stroke-width:0.35277778"
         inkscape:connector-curvature="0" />
      <path
         inkscape:connector-curvature="0"
         style="clip-rule:nonzero;fill:#d7113f;fill-opacity:1;fill-rule:nonzero;stroke:none;stroke-width:0.35277778"
         d="m 67.410668,159.3799 c -0.165361,-0.20946 -0.8971,-0.16261 -1.349101,-0.0124 -1.189239,0.39549 -1.34083,1.59163 -1.53651,2.92833 -0.25356,0.10335 -0.231509,0.44097 -0.0689,0.5457 -0.0331,0.22738 -0.30455,1.80385 -0.26045,2.30546 0.0675,0.7717 0.68351,0.48507 0.760679,0.16123 0.0482,-0.19844 -0.062,-0.1254 -0.0675,-0.14607 -0.0909,-0.36656 0.10473,-1.63987 0.24391,-2.44327 0.2136,-0.0248 0.48645,-0.0441 0.83096,-0.0482 0.0303,0 0,0.15021 0.0799,0.12265 0.428569,-0.14056 0.73174,-0.87092 0.205329,-0.88195 -0.14194,-0.003 -0.582909,0.0675 -0.999079,0.1695 0.005,-0.0276 0.008,-0.0441 0.008,-0.0441 0.29904,-1.71704 0.88332,-1.98714 1.77216,-1.87965 0.073,0.01 -0.003,0.11162 0.11575,0.0937 0.38034,-0.11851 0.44925,-0.63941 0.264589,-0.87092 z m 0,0"
         id="path20528" />
      <path
         id="path20532"
         d="m 49.745597,161.69638 c -0.12402,0.22738 -1.52273,1.00597 -1.757,1.10105 0.007,-0.2067 0.1571,-1.32291 0.16261,-1.37528 0.0496,-0.54846 -0.17639,-0.4768 -0.41617,-0.50849 0.25218,-0.64217 1.612311,-0.0179 1.905831,0.23977 0.195679,0.17226 0.230129,0.31282 0.104729,0.54295 z m 0.15021,-1.30087 c -0.68764,-0.47818 -1.70877,-0.70693 -2.31511,-0.42857 -0.66008,0.30179 -0.49471,1.22921 -0.47542,1.55167 0.0276,0.40515 0.0868,1.02802 0.0744,1.59715 -0.11713,0.0827 -0.14056,0.27147 0,0.37758 -0.0124,0.18742 -0.051,0.41204 -0.0593,0.57602 -0.0524,0.99357 0.62287,0.85163 0.7152,0.48094 0.0482,-0.20119 -0.0648,-0.0593 -0.0455,-0.16674 0.008,-0.0496 0.0565,-0.38448 0.0565,-0.38448 0,0 0.0648,0.0469 1.74047,1.23197 0.38722,0.27423 0.694531,-0.15434 0.0165,-0.72898 -1.25126,-1.05971 -1.305,-1.1107 -1.305,-1.1107 0,0 1.68534,-0.87368 2.02434,-1.31603 0.31005,-0.40376 0.25907,-1.20302 -0.4272,-1.67983"
         style="fill:#d7113f;fill-opacity:1;fill-rule:nonzero;stroke:none;stroke-width:0.35277778"
         inkscape:connector-curvature="0" />
      <path
         id="path20534"
         d="m 58.795177,161.75839 c -0.1254,0.22738 -1.52411,1.00597 -1.75838,1.10106 0.007,-0.20671 0.15847,-1.32292 0.16261,-1.37391 0.0496,-0.54846 -0.17639,-0.4768 -0.41617,-0.50987 0.25356,-0.64079 1.61231,-0.0179 1.90583,0.23978 0.19568,0.17225 0.231511,0.31281 0.10611,0.54294 z m 0.1502,-1.30086 c -0.689019,-0.47818 -1.710139,-0.70694 -2.31648,-0.42857 -0.6587,0.30179 -0.494709,1.22921 -0.47542,1.55167 0.0276,0.40514 0.0868,1.02801 0.0744,1.59714 -0.11713,0.0827 -0.140561,0.27148 0,0.37759 -0.0124,0.18741 -0.0496,0.41341 -0.0593,0.57602 -0.0524,0.99356 0.624249,0.85162 0.715199,0.48093 0.0482,-0.20119 -0.0648,-0.0593 -0.0455,-0.16674 0.008,-0.0496 0.0565,-0.38447 0.0565,-0.38447 0,0 0.0648,0.0469 1.740459,1.23196 0.387231,0.27561 0.69454,-0.15434 0.0165,-0.72898 -1.25126,-1.05971 -1.305,-1.1107 -1.305,-1.1107 0,0 1.68534,-0.87368 2.02434,-1.31603 0.31005,-0.40376 0.25907,-1.20302 -0.42582,-1.67982"
         style="fill:#d7113f;fill-opacity:1;fill-rule:nonzero;stroke:none;stroke-width:0.35277778"
         inkscape:connector-curvature="0" />
      <path
         id="path20536"
         d="m 54.834697,161.2499 c -0.1695,0.59531 -0.16675,0.71382 -0.19293,0.92053 -0.647679,-0.0717 -0.941199,0.32521 -1.418,0.82406 -0.26045,0.27148 -0.39825,0.43271 -0.80615,0.79927 -0.0524,0.0386 -0.113,0.0923 -0.187419,0.16398 -0.65732,0.61047 -1.081761,0.48783 -1.13137,0.27148 1.708769,-1.14929 1.486909,-1.91272 1.158929,-2.12356 -0.43408,-0.27836 -1.32705,-0.0524 -1.86724,1.04731 -0.13505,0.27423 -0.18741,0.55673 -0.17501,0.81855 -0.21773,0.17364 -0.177769,0.50712 0.14056,0.56913 0.15021,0.30731 0.40514,0.51952 0.7152,0.54708 0.60221,0.0565 1.35186,-0.53468 1.57234,-0.72347 0,0.008 -0.003,0.0179 -0.008,0.0303 -0.0854,0.1819 -0.0882,0.57051 0.14331,0.6904 0.36243,0.18741 0.92466,-0.0455 1.44005,-0.7152 -0.008,0.11575 -0.008,0.20946 -10e-4,0.29076 0.051,0.56775 0.61047,0.45889 0.74965,0.0165 0.0413,-0.13643 -0.0165,-0.022 -0.0758,-0.113 0.0593,-0.91089 0.15296,-1.76665 0.614601,-3.11161 0.191553,-0.55948 -0.514007,-0.75241 -0.671097,-0.20257 z m -3.85576,2.42948 c -0.101969,-0.38723 0.36518,-1.16996 0.74277,-1.06247 0.31557,0.0909 -0.141939,0.76481 -0.74277,1.06247 z m 2.38539,0.57877 c -0.112999,-0.0427 0.0303,-0.47542 0.35967,-0.93155 0.294901,-0.40652 0.59944,-0.6711 0.69453,-0.57602 0.0841,0.0841 -0.0717,0.51952 -0.385849,0.93431 -0.19568,0.25632 -0.53882,0.6215 -0.668351,0.57326 z m 0,0"
         style="fill:#d7113f;fill-opacity:1;fill-rule:nonzero;stroke:none;stroke-width:0.35277778"
         inkscape:connector-curvature="0" />
      <path
         id="path20538"
         d="m 53.467678,161.11209 c 0.336239,0.11989 1.11759,-0.50022 0.29766,-0.85851 -0.83234,-0.36381 -3.72071,-1.60955 -5.561761,-2.41571 -0.339,-0.14745 -0.58705,-0.16398 -0.91502,0.0717 -0.22462,0.16123 -0.80064,0.57327 -1.22232,0.87368 -0.4203,0.30179 -0.0648,1.06247 0.5774,0.53881 0.65181,-0.50712 0.94946,-0.8158 1.36563,-0.63665 1.20027,0.51952 4.43453,1.98437 5.3647,2.32199 0.10749,0.0386 -10e-4,0.0717 0.0937,0.10473 z m 0,0"
         style="fill:#d7113f;fill-opacity:1;fill-rule:nonzero;stroke:none;stroke-width:0.35277778"
         inkscape:connector-curvature="0" />
      <path
         id="path20540"
         d="m 65.631617,164.66192 c 0.213601,0 0.3831,0.17363 0.3831,0.39136 0,0.22187 -0.169499,0.39412 -0.384469,0.39412 -0.212221,0 -0.38585,-0.17225 -0.38585,-0.39412 0,-0.21773 0.173629,-0.39136 0.38585,-0.39136 z m -0.001,0.0606 c -0.17088,0 -0.31144,0.14745 -0.31144,0.33073 0,0.18742 0.14056,0.33349 0.31282,0.33349 0.17363,0.001 0.31143,-0.14607 0.31143,-0.33211 0,-0.18328 -0.1378,-0.33211 -0.31143,-0.33211 z m -0.073,0.55949 h -0.0689 v -0.43822 c 0.0358,-0.004 0.0717,-0.01 0.12265,-0.01 0.0662,0 0.10886,0.0138 0.13505,0.0331 0.0262,0.0193 0.04,0.0482 0.04,0.0909 0,0.0565 -0.0386,0.0923 -0.0841,0.10611 v 0.003 c 0.0372,0.007 0.0634,0.0427 0.0717,0.10611 0.011,0.0689 0.0207,0.0937 0.0276,0.10886 h -0.073 c -0.01,-0.0151 -0.0207,-0.0537 -0.0289,-0.11162 -0.01,-0.0565 -0.0372,-0.0772 -0.0937,-0.0772 h -0.0482 z m 0,-0.24254 h 0.051 c 0.0565,0 0.10473,-0.0207 0.10473,-0.0744 0,-0.0386 -0.0276,-0.0772 -0.10473,-0.0772 -0.0234,0 -0.0386,0.001 -0.051,0.003 z m 0,0"
         style="fill:#d7113f;fill-opacity:1;fill-rule:nonzero;stroke:none;stroke-width:0.35277778"
         inkscape:connector-curvature="0" />
    </g>
  </g>
</svg>
